<?xml version="1.0" encoding="iso-8859-1"?>
<!-- Uploaded to: SVG Repo, www.svgrepo.com, Generator: SVG Repo Mixer Tools -->
<svg fill="#000000" height="800px" width="800px" version="1.1" id="Capa_1" xmlns="http://www.w3.org/2000/svg" xmlns:xlink="http://www.w3.org/1999/xlink" 
	 viewBox="0 0 466 466" xml:space="preserve">
<path d="M465.993,213.171c-0.004-0.312-0.021-0.625-0.062-0.937c-0.004-0.03-0.011-0.058-0.016-0.087
	c-0.04-0.28-0.097-0.558-0.167-0.835c-0.024-0.096-0.053-0.19-0.081-0.284c-0.062-0.209-0.132-0.417-0.212-0.623
	c-0.038-0.099-0.075-0.199-0.117-0.297c-0.094-0.219-0.202-0.434-0.318-0.647c-0.036-0.067-0.066-0.136-0.104-0.201
	c-0.002-0.004-0.004-0.008-0.006-0.013c-0.154-0.265-0.324-0.515-0.503-0.755c-0.053-0.071-0.111-0.137-0.166-0.206
	c-0.148-0.185-0.301-0.363-0.462-0.532c-0.063-0.066-0.128-0.131-0.193-0.196c-0.188-0.184-0.384-0.358-0.588-0.521
	c-0.043-0.034-0.083-0.072-0.127-0.105c-0.257-0.197-0.524-0.377-0.801-0.54c-0.015-0.009-0.027-0.02-0.042-0.028L341.214,135.98
	V90.044c0-0.048-0.009-0.094-0.01-0.142c-0.005-0.256-0.022-0.511-0.051-0.764c-0.009-0.081-0.016-0.162-0.028-0.243
	c-0.045-0.31-0.104-0.617-0.185-0.919c-0.011-0.042-0.027-0.082-0.039-0.123c-0.074-0.261-0.163-0.518-0.264-0.771
	c-0.033-0.083-0.069-0.165-0.105-0.247c-0.1-0.23-0.212-0.454-0.334-0.674c-0.031-0.056-0.06-0.114-0.092-0.17
	c-0.162-0.277-0.34-0.545-0.536-0.802c-0.016-0.021-0.034-0.04-0.051-0.061c-0.177-0.228-0.37-0.446-0.574-0.655
	c-0.056-0.057-0.113-0.113-0.171-0.169c-0.181-0.175-0.37-0.341-0.57-0.5c-0.061-0.049-0.119-0.099-0.181-0.146
	c-0.249-0.187-0.508-0.366-0.784-0.526L205.475,6.367c-2.49-1.45-5.564-1.45-8.055,0L65.652,83.131
	c-0.276,0.161-0.535,0.339-0.784,0.526c-0.062,0.047-0.12,0.097-0.181,0.146c-0.199,0.159-0.389,0.325-0.57,0.5
	c-0.057,0.056-0.115,0.111-0.171,0.169c-0.204,0.21-0.396,0.427-0.574,0.655c-0.016,0.021-0.035,0.04-0.051,0.061
	c-0.196,0.257-0.374,0.525-0.536,0.802c-0.033,0.056-0.061,0.114-0.092,0.17c-0.122,0.22-0.233,0.444-0.334,0.674
	c-0.036,0.082-0.072,0.164-0.105,0.247c-0.101,0.253-0.189,0.51-0.264,0.771c-0.012,0.042-0.028,0.082-0.039,0.123
	c-0.081,0.302-0.14,0.609-0.185,0.919c-0.012,0.081-0.019,0.162-0.028,0.243c-0.029,0.254-0.046,0.508-0.051,0.764
	c-0.001,0.048-0.01,0.094-0.01,0.142v119.462L3.973,243.126c-0.276,0.161-0.535,0.339-0.784,0.526
	c-0.062,0.047-0.12,0.097-0.181,0.146c-0.199,0.159-0.389,0.325-0.57,0.5c-0.057,0.056-0.115,0.111-0.171,0.169
	c-0.204,0.21-0.396,0.427-0.574,0.655c-0.016,0.021-0.035,0.04-0.051,0.061c-0.196,0.257-0.374,0.525-0.536,0.802
	c-0.033,0.056-0.061,0.114-0.092,0.17c-0.122,0.22-0.233,0.444-0.334,0.674c-0.036,0.082-0.072,0.164-0.105,0.247
	c-0.101,0.253-0.189,0.51-0.264,0.771c-0.012,0.042-0.028,0.082-0.039,0.123c-0.081,0.302-0.14,0.609-0.185,0.919
	c-0.012,0.081-0.019,0.162-0.028,0.243c-0.029,0.254-0.046,0.508-0.051,0.764C0.009,249.944,0,249.99,0,250.038v89.984
	c0,2.847,1.513,5.479,3.973,6.913L197.42,459.633c0.024,0.014,0.05,0.023,0.074,0.037c0.284,0.162,0.576,0.31,0.881,0.437
	c0.007,0.003,0.015,0.005,0.022,0.008c0.286,0.118,0.582,0.216,0.884,0.3c0.078,0.022,0.157,0.041,0.235,0.06
	c0.238,0.059,0.48,0.107,0.727,0.144c0.083,0.013,0.165,0.028,0.249,0.038c0.314,0.037,0.632,0.062,0.956,0.062
	s0.642-0.025,0.956-0.062c0.083-0.01,0.166-0.025,0.249-0.038c0.246-0.037,0.488-0.085,0.727-0.144
	c0.079-0.02,0.157-0.038,0.235-0.06c0.302-0.085,0.597-0.182,0.884-0.3c0.007-0.003,0.015-0.005,0.022-0.008
	c0.304-0.127,0.597-0.275,0.881-0.437c0.024-0.014,0.05-0.023,0.074-0.037l193.446-112.698l63.104-36.763
	c2.46-1.433,3.973-4.065,3.973-6.913L466,213.276C466,213.24,465.994,213.206,465.993,213.171z M442.105,213.274l-47.212,27.505
	l-53.68-31.273v-55.009L442.105,213.274z M201.447,216.746c-4.418,0-8,3.582-8,8v81.673L77.68,238.975V103.964l115.768,67.443
	v23.339c0,4.418,3.582,8,8,8s8-3.582,8-8v-23.339l115.767-67.443v135.012l-115.767,67.443v-81.673
	C209.447,220.327,205.865,216.746,201.447,216.746z M201.447,22.538l115.874,67.506L201.447,157.55L85.573,90.044L201.447,22.538z
	 M65.652,250.486l131.768,76.765c0.024,0.014,0.05,0.023,0.074,0.037c0.284,0.162,0.576,0.31,0.881,0.437
	c0.007,0.003,0.015,0.005,0.022,0.008c0.286,0.118,0.582,0.216,0.884,0.3c0.078,0.022,0.157,0.041,0.235,0.06
	c0.238,0.059,0.48,0.107,0.727,0.144c0.083,0.013,0.165,0.028,0.249,0.038c0.314,0.037,0.632,0.062,0.956,0.062
	c0.324,0,0.642-0.025,0.956-0.062c0.083-0.01,0.164-0.025,0.246-0.038c0.248-0.037,0.491-0.086,0.731-0.145
	c0.077-0.019,0.154-0.038,0.23-0.059c0.306-0.086,0.606-0.184,0.895-0.304c0.004-0.002,0.008-0.003,0.011-0.004
	c0.305-0.127,0.598-0.276,0.883-0.438c0.024-0.014,0.05-0.023,0.074-0.037l131.767-76.765c2.46-1.433,3.973-4.065,3.973-6.913
	v-15.549l37.787,22.014L201.447,353.477L23.893,250.038l37.787-22.014v15.549C61.68,246.421,63.192,249.053,65.652,250.486z
	 M16,263.958l177.447,103.377v71.467L16,335.424V263.958z M386.894,335.424L209.447,438.801v-71.467l177.446-103.377V335.424z
	 M402.894,326.103v-71.467L450,227.193l-0.002,71.468L402.894,326.103z"/>
</svg>